<svg xmlns="http://www.w3.org/2000/svg" viewBox="0 0 128 128" x="0px" y="0px">
  <path d="M112,124H99.93768a97.16591,97.16591,0,0,1-14.06708-22.4859A3.98715,3.98715,0,0,0,88,98V94a4.004,4.004,0,0,0-4-4H81.2453A160.903,160.903,0,0,1,76.175,71.98236,1.99481,1.99481,0,0,0,76,68h-.6662a208.72562,208.72562,0,0,1-3.07892-21.45441,1.97955,1.97955,0,0,0-.28125-3.28247c-.66534-8.60327-.69727-15.44989-.63275-19.29749a1.99511,1.99511,0,0,0,.40967-3.81714l1.85785-4.2901a1.99984,1.99984,0,0,0-.59473-2.36377L66,7.95V2a2,2,0,0,0-4,0V8.12854L55.3457,13.5083a2.00017,2.00017,0,0,0-.61426,2.25928l1.63464,4.34473a1.98815,1.98815,0,0,0,.41272,3.86542c.20062,6.70471.09222,13.0766-.2912,19.09686a1.994,1.994,0,0,0-.27747,3.76208A176.07914,176.07914,0,0,1,53.162,68H52a2,2,0,0,0,0,4h.28a152.7534,152.7534,0,0,1-5.36932,18H44a4.004,4.004,0,0,0-4,4v4a3.98654,3.98654,0,0,0,2.092,3.49377A107.03155,107.03155,0,0,1,28.07208,124H16a2,2,0,0,0,0,4H52a2.0001,2.0001,0,0,0,2-2v-3.48047a10.01213,10.01213,0,0,1,20,0V126a2.0001,2.0001,0,0,0,2,2h36a2,2,0,0,0,0-4ZM67.31744,24c-.0871,3.90631-.08228,10.61145.51849,19H60.49426c.37341-6.00476.483-12.34052.28809-19ZM64.11719,11.56055l5.21,4.11865-1.71289,3.95557A1.98652,1.98652,0,0,0,67.499,20H60.57166c-.01422-.049-.01257-.1015-.03064-.14941L58.9834,15.71094ZM60.21472,47h7.94275a207.91793,207.91793,0,0,0,2.95746,21H57.23914A180.40854,180.40854,0,0,0,60.21472,47ZM56.37811,72H71.93793a164.65711,164.65711,0,0,0,4.96423,18H70.75775l-.7851-6.07812C69.083,78.57715,65.499,78,64,78c-3.14355,0-5.43359,2.28223-5.9834,5.99414L57.2417,90H51.15594A158.01217,158.01217,0,0,0,56.37811,72Zm4.8963,18,.7041-5.457C62.11914,83.59375,62.56934,82,64,82c.51855,0,1.59766,0,2.0166,2.50586L66.72559,90ZM44,94H84l.00293,4H44Zm34,30v-1.48047a14.00854,14.00854,0,0,0-28,0V124H33.19434a116.98858,116.98858,0,0,0,13.06921-22H81.615a105.27092,105.27092,0,0,0,13.134,22Z"/>
</svg>
