<svg height='100px' width='100px' fill="#000000"
  xmlns="http://www.w3.org/2000/svg" data-name="Calque 1" viewBox="0 0 202.05 407.33" x="0px" y="0px">
  <title>wine</title>
  <path d="M351.48,157.4c0-21.5-4.19-79.7-11.86-110.4H161.29c-7.66,30.7-11.86,88.9-11.86,110.4,0,44.16,37.14,80.73,85.61,87.22,6.61,23.08,7.84,74.53,7.84,110.24,0,38.28-4.94,51.58-12.6,73.36h.5c-32.06,2.37-55.65,10-55.65,15.38,0,6.4,33.73,10.73,75.33,10.73s75.32-4.33,75.32-10.73c0-5.36-23.59-13-55.65-15.38h.51C263,406.44,258,393.14,258,354.86c0-35.71,1.23-87.16,7.83-110.24C314.35,238.13,351.48,201.56,351.48,157.4Zm-193.82,0c0-19.63,3.58-71,10.18-102.18H333.07c6.61,31.2,10.19,82.55,10.19,102.18,0,44.12-41.63,80-92.8,80S157.66,201.52,157.66,157.4Z" transform="translate(-149.43 -47)"></path>
  <path d="M228.39,131.61c-19.75-9.75-39.61-15.65-57.91-19.71-1.67,17.4-2.54,33.91-2.54,42.78,0,39.8,36.94,72.07,82.52,72.07S333,194.48,333,154.68c0-5-.28-12.36-.81-21C308.19,148,272.94,153.6,228.39,131.61Z" transform="translate(-149.43 -47)"></path>
</svg>