<svg xmlns="http://www.w3.org/2000/svg"
  xmlns:xlink="http://www.w3.org/1999/xlink" version="1.1" x="0px" y="0px" viewBox="0 0 91 91" style="enable-background:new 0 0 91 91;" xml:space="preserve">
  <g>
    <path d="M17.6,39.9c1.9,0.5,4.6,0.6,5.8,2.4c1.6,2.1,0.9,5.6,0.6,8c-0.5,4.4-0.8,9.3,2.1,13c2.7,3.5,7.1,3.4,9.9,0   c3.2-3.9,2.9-8.9,2.2-13.6c-0.2-1.7-0.9-3.9,1.1-4.8c1-0.4,2.5-0.2,3.5-0.4c2.3-0.2,4.4-1,6.3-2.3c1.3-0.9,2.2-2,2.9-3.2   c2.6,0.2,5.2,0,7.6-0.8c0,0.5-0.1,39.8-0.2,40.2c-0.4,3.3-4.1,4.7-6.9,5.6c-6.6,2.3-14,2-20.8,1c-6.2-0.9-13.5-2.4-13.8-10   c0.1-2.6,0.1-5.3,0.1-8c-0.1-7.9-0.1-15.8-0.4-23.7c-0.1-2.3-3.5-2.3-3.6,0c-0.2,7.6-0.1,15.2-0.1,22.8c0,3,0,6,0,9.1   c0.2,7.1,4.7,11.1,11.2,13c6.7,1.9,14.4,2.5,21.3,1.7c5.1-0.6,15.8-2.8,17-9c0.1-0.4,0.1-0.7,0.2-1.1C76,76.1,86.5,66,86.1,52.4   c-0.2-5.7-3.4-11.6-8.6-14.1c-3.8-1.8-9.4-2.4-13.7-0.9c0-0.4,0-0.8,0-1.3c0.2-0.2,0.5-0.4,0.7-0.6c2.8-3,3.6-7.4,2.7-11.3   c-1.9-8-11.2-11.2-18.4-8.5c-3.7-3.6-8.7-5.7-13.9-5.4c-4.4,0.3-9.8,2.4-12.6,6.1c-4.1,0-8.3,2-10.9,5.2   C5.8,28.4,9.3,37.8,17.6,39.9z M63.6,49.4c4-0.7,9.1-1.9,10.3,3.3c0.9,4.1-2.1,10.2-6.4,11c-2.6,0.5-1.2,4.8,1.5,3.6   c5.6-2.6,9.8-9.2,8.3-15.5c-1.7-6.8-8.1-7-13.7-5.8c0-1.5,0-2.9,0-4.4c4.3-1,8.8-1.6,12.7,1c4.3,2.8,5.7,8.3,4.8,13.1   c-1.7,9.7-8.6,15.9-17.6,18.3C63.6,73.9,63.6,52.9,63.6,49.4z M17.1,22.7c1.8-1.2,4-1.9,6.1-1.7c2,0.2,3.5,1.5,5.4,1.8   c0.8,0.1,1.7-0.3,1.7-1.3c-0.1-2-1.4-3.3-3.1-4.1c2.4-1.7,4.8-3,8.2-3.1c4.5-0.1,8.6,2,11.5,5.4c0.6,0.7,1.8,0.7,2.6,0.3   c4.7-2.5,12.8-0.6,13.6,5.4c0.7,6.1-4.6,7.9-9.5,7.9c-0.1-1.1-0.4-2.3-0.9-3.4c-1.3-3-5.8-0.4-4.4,2.6c1.1,2.4-0.2,4.9-2.3,6.2   c-1.9,1.2-4.1,1.1-6.2,1.4c-3.4,0.5-5.9,2.5-6.1,6c-0.2,2.4,0.6,4.7,0.8,7c0.2,2.2,0.3,6.6-2.1,7.9c-3.5,2-4.1-4.9-4.1-6.5   c0-2.3,0.4-4.7,0.6-7c0.3-3.6-0.1-7.4-3.2-9.8c-3-2.3-7.7-1.6-10.3-4.2C11.7,30.3,13.6,25.1,17.1,22.7z"/>
    <path d="M49.5,76.8c0.6-5.1,0.5-24.9-0.5-29c-0.3-1.3-2.3-1.3-2.6,0c-1,4.1-0.7,23.9-0.1,29C46.5,78.9,49.3,78.9,49.5,76.8z"/>
    <path d="M30.7,78.2c1.1-0.9,0.6-8.5,0-10.1c-0.5-1.3-2.2-1.3-2.7,0c-0.6,1.6-1.1,9.3,0,10.1C28.9,78.8,29.8,78.8,30.7,78.2z"/>
  </g>
</svg>