<svg xmlns:dc="http://purl.org/dc/elements/1.1/"
  xmlns:cc="http://creativecommons.org/ns#"
  xmlns:rdf="http://www.w3.org/1999/02/22-rdf-syntax-ns#"
  xmlns:svg="http://www.w3.org/2000/svg"
  xmlns="http://www.w3.org/2000/svg"
  xmlns:sodipodi="http://sodipodi.sourceforge.net/DTD/sodipodi-0.dtd"
  xmlns:inkscape="http://www.inkscape.org/namespaces/inkscape" version="1.1" x="0px" y="0px" viewBox="0 0 100 100">
  <g transform="translate(0,-952.36218)">
    <path style="text-indent:0;text-transform:none;direction:ltr;block-progression:tb;baseline-shift:baseline;color:#000000;enable-background:accumulate;" d="m 46.008536,962.3622 c -1.61179,0 -3.24805,0.25148 -4.68947,0.98101 -1.30923,0.83812 -2.77089,2.34886 -3.28266,3.82907 -0.60488,2.4491 -0.007,6.03103 1.40683,10.06327 1.2429,3.54553 3.29137,7.30245 5.8462,10.66454 -6.70327,0.69715 -11.48793,2.60392 -14.5686,5.34812 -3.34302,2.9778 -4.72073,6.84749 -4.72073,10.63289 l 0,22.2784 c -0.007,0.459 0.33462,0.8991 0.7766,1.0018 0.44199,0.1027 0.93866,-0.1428 1.13045,-0.5588 1.55034,-3.1386 2.29036,-5.8258 3.97042,-7.7531 1.15705,-1.3274 2.80854,-2.4178 5.62735,-3.1329 l -5.28346,6.7721 c -0.46807,0.592 0.0325,1.6459 0.78158,1.6456 l 8.00335,0 0,17.2152 c 5e-5,0.5302 0.47662,1.0126 1.00042,1.0126 l 5.0021,0 c 0.52852,0.01 1.00042,-0.4776 1.00042,-1.0126 0,-0.5351 -0.4719,-1.0203 -1.00042,-1.0127 l -4.00168,0 0,-16.2025 9.69156,0 3.72031,2.8164 c 0.40964,0.3887 1.16517,0.3292 1.50063,-0.1265 0.33546,-0.4558 0.17246,-1.2012 -0.31263,-1.4874 l -4.00168,-3.0379 c -0.17155,-0.1247 -0.38286,-0.1922 -0.59399,-0.1899 l -10.0042,0 0,-7.2468 c 9.82897,-1.3189 16.0067,-7.4687 16.0067,-14.019 0,-6.84189 -2.66821,-11.45073 -5.59609,-15.31642 -2.66744,-3.52184 -5.42187,-6.54775 -6.97167,-10.2848 1.76572,-0.55339 3.09201,-1.88078 3.93915,-2.75316 7.50138,0.74273 15.05489,1.19726 22.54068,1.99362 0.49496,0.0376 0.98523,-0.35493 1.06305,-0.85115 0.0778,-0.49622 -0.26828,-1.02314 -0.75042,-1.14252 l -20.57113,-4.96834 c -0.99537,-2.8992 -3.68407,-5.05456 -6.65897,-5.15813 z m 0,2.02531 c 2.00157,0.27311 3.74441,1.42846 4.28304,2.81645 0.32308,1.38983 -0.43769,2.51404 -1.06292,3.60759 -1.01531,1.01932 -2.91041,2.68987 -4.22051,2.68987 -0.62562,0.008 -1.13338,0.7275 -0.93789,1.32911 1.59201,4.83449 4.95999,8.20113 7.78451,11.93036 2.82452,3.72922 5.1584,7.75962 5.1584,14.08221 0,5.4009 -5.4507,11.1752 -15.10007,12.1519 -6.14003,0.5179 -9.46457,2.1172 -11.53609,4.4937 -1.03576,1.1882 -1.74845,2.5087 -2.37599,3.8924 l 0,-8.1646 c 2.89104,-4.9282 3.85216,-7.7338 8.59736,-11.5822 1.83927,-1.1574 4.03846,-1.5646 5.84623,-1.67719 2.10146,-0.02 4.60178,-0.3443 6.28389,-1.4557 1.00042,-1.0127 2.28221,-2.384 2.28221,-4.7469 0.0226,-0.5855 -0.55115,-1.1179 -1.12548,-1.0443 -0.49143,0.062 -0.89463,0.5434 -0.87536,1.0443 0,1.6284 -0.68084,2.2748 -1.62568,3.2279 -1.16091,0.7493 -2.93447,0.8225 -5.06463,0.9493 -2.16263,0.1288 -4.66287,0.3833 -6.90915,2.08859 -3.21606,2.1991 -5.72609,6.212 -7.40939,9.2088 l 0,-5.348 c 0,-3.3032 1.12334,-6.52219 4.03294,-9.11399 2.9096,-2.5917 7.68164,-4.5668 15.03755,-5.06323 0.74007,-0.0491 1.17597,-1.11205 0.68779,-1.67722 -2.90169,-3.42671 -5.10255,-7.63982 -6.4402,-11.45568 -1.33182,-3.79925 -1.73119,-7.28149 -1.34431,-8.89239 0.51219,-1.12308 1.31812,-2.06202 2.21967,-2.5316 1.13529,-0.78712 2.65048,-0.75225 3.81408,-0.75948 z m -0.50022,2.02531 c -0.82877,0 -1.50062,0.45339 -1.50062,1.01266 0,0.55927 0.67185,1.01266 1.50062,1.01266 0.82879,0 1.50064,-0.45339 1.50064,-1.01266 0,-0.55927 -0.67185,-1.01266 -1.50064,-1.01266 z m 6.62779,3.10126 7.44061,1.77215 -7.90956,-0.6962 c 0.21239,-0.35804 0.33698,-0.75485 0.46895,-1.0759 z m -11.12967,45.60122 0,6.9936 -5.97125,0 5.31473,-6.9303 c 0.2272,-0.028 0.4588,-0.044 0.65652,-0.063 z" fill="#000000" fill-opacity="1" stroke="none" marker="none" visibility="visible" display="inline" overflow="visible"/>
  </g>
</svg>